<svg width="30" height="30" viewBox="0 0 30 30" fill="none" xmlns="http://www.w3.org/2000/svg">
<rect width="30" height="30" rx="5" fill="white"/>
<path fill-rule="evenodd" clip-rule="evenodd" d="M13.0312 8.34375C13.0312 7.04933 14.0806 6 15.375 6C16.6694 6 17.7187 7.04933 17.7187 8.34375V8.38582L17.7552 8.36478C18.8762 7.71758 20.3096 8.10166 20.9568 9.22266C21.604 10.3437 21.2199 11.7771 20.0989 12.4243L20.0625 12.4453L20.0989 12.4663C21.2199 13.1136 21.604 14.547 20.9568 15.668C20.3096 16.789 18.8762 17.173 17.7552 16.5258L17.7187 16.5048V16.5469C17.7187 17.8413 16.6694 18.8906 15.375 18.8906C14.0806 18.8906 13.0312 17.8413 13.0312 16.5469V16.5048L12.9948 16.5258C11.8738 17.173 10.4404 16.789 9.79318 15.668C9.14598 14.547 9.53006 13.1136 10.6511 12.4663L10.6875 12.4453L10.6511 12.4243C9.53006 11.7771 9.14597 10.3437 9.79318 9.22266C10.4404 8.10166 11.8738 7.71758 12.9948 8.36478L13.0312 8.38582V8.34375ZM17.7187 12.4453C17.7187 13.7397 16.6694 14.7891 15.375 14.7891C14.0806 14.7891 13.0312 13.7397 13.0312 12.4453C13.0312 11.1509 14.0806 10.1016 15.375 10.1016C16.6694 10.1016 17.7187 11.1509 17.7187 12.4453Z" fill="url(#paint0_linear_10_41)"/>
<path d="M14.2031 24.75H13.0312C9.79521 24.75 7.17188 22.1267 7.17188 18.8906V17.7188H8.34375C11.5798 17.7188 14.2031 20.3421 14.2031 23.5781V24.75Z" fill="url(#paint1_linear_10_41)"/>
<path d="M17.7188 24.75H16.5469V23.5781C16.5469 20.3421 19.1702 17.7188 22.4062 17.7188H23.5781V18.8906C23.5781 22.1267 20.9548 24.75 17.7188 24.75Z" fill="url(#paint2_linear_10_41)"/>
<defs>
<linearGradient id="paint0_linear_10_41" x1="15.375" y1="6" x2="15.375" y2="24.75" gradientUnits="userSpaceOnUse">
<stop offset="0.9999" stop-color="#167B63"/>
<stop offset="1" stop-color="white"/>
</linearGradient>
<linearGradient id="paint1_linear_10_41" x1="15.375" y1="6" x2="15.375" y2="24.75" gradientUnits="userSpaceOnUse">
<stop offset="0.9999" stop-color="#167B63"/>
<stop offset="1" stop-color="white"/>
</linearGradient>
<linearGradient id="paint2_linear_10_41" x1="15.375" y1="6" x2="15.375" y2="24.75" gradientUnits="userSpaceOnUse">
<stop offset="0.9999" stop-color="#167B63"/>
<stop offset="1" stop-color="white"/>
</linearGradient>
</defs>
</svg>
